<?xml version="1.0" encoding="utf-8"?>
<!-- Generator: Adobe Illustrator 16.0.0, SVG Export Plug-In . SVG Version: 6.00 Build 0)  -->
<!DOCTYPE svg PUBLIC "-//W3C//DTD SVG 1.1//EN" "http://www.w3.org/Graphics/SVG/1.1/DTD/svg11.dtd">
<svg version="1.1" id="Capa_1" xmlns="http://www.w3.org/2000/svg" xmlns:xlink="http://www.w3.org/1999/xlink" x="0px" y="0px"
	 width="269px" height="58px" viewBox="0 0 269 58" enable-background="new 0 0 269 58" xml:space="preserve">
<g>
	<g>
		<path fill="#3F51B5" stroke="#FFFFFF" stroke-width="5" stroke-miterlimit="10" d="M60.408,36.115
			c0,3.515-1.233,6.438-3.697,8.771c-2.465,2.334-5.457,3.502-8.978,3.502H24.95c-3.521,0-6.514-1.168-8.978-3.502
			c-2.465-2.334-3.696-5.257-3.696-8.771v-14.23c0-3.514,1.231-6.438,3.696-8.772c2.464-2.334,5.456-3.501,8.978-3.501h22.783
			c3.521,0,6.513,1.167,8.978,3.501c2.464,2.334,3.697,5.258,3.697,8.772V36.115z M51.354,36.104V21.896
			c0-2.155-1.207-3.232-3.621-3.232H24.95c-2.414,0-3.621,1.078-3.621,3.232v14.207c0,2.154,1.207,3.232,3.621,3.232h22.783
			C50.147,39.336,51.354,38.258,51.354,36.104z"/>
		<path fill="#3F51B5" stroke="#FFFFFF" stroke-width="5" stroke-miterlimit="10" d="M109.746,48.389H97.374L77.985,26.661h23.312
			c1.659,0,2.489-1.332,2.489-3.999c0-2.665-0.83-3.999-2.489-3.999H73.232v29.725H64.18V9.611h37.646
			c3.47,0,6.211,1.358,8.223,4.074c1.86,2.465,2.792,5.458,2.792,8.978c0,3.521-0.932,6.514-2.792,8.978
			c-2.012,2.715-4.753,4.074-8.223,4.074h-3.471L109.746,48.389z"/>
		<path fill="#3F51B5" stroke="#FFFFFF" stroke-width="5" stroke-miterlimit="10" d="M160.442,28.736
			c3.169,1.959,4.753,4.946,4.753,8.961c0,2.911-0.932,5.37-2.791,7.377c-2.013,2.209-4.729,3.314-8.148,3.314h-37.645V9.611h36.966
			c3.42,0,6.136,1.104,8.147,3.313c1.812,2.008,2.717,4.467,2.717,7.378C164.441,23.917,163.107,26.728,160.442,28.736z
			 M153.577,24.473c1.308,0,1.962-0.968,1.962-2.904c0-1.936-0.654-2.905-1.962-2.905h-27.913v5.809H153.577z M154.186,39.336
			c1.304,0,1.957-0.969,1.957-2.905c0-1.936-0.653-2.904-1.957-2.904h-28.521v5.81H154.186z"/>
		<g>
			<path fill="#3F51B5" stroke="#FFFFFF" stroke-width="5" stroke-miterlimit="10" d="M172.282,13.113
				c-2.465,2.334-3.696,5.258-3.696,8.771v14.23c0,3.516,1.231,6.438,3.696,8.772c2.464,2.334,5.457,3.501,8.978,3.501h28.571
				v-9.053H181.26c-2.414,0-3.621-1.078-3.621-3.232v-2.715h30.308v-8.915h-30.308v-2.577c0-2.154,1.207-3.232,3.621-3.232h28.571
				V9.611H181.26C177.739,9.611,174.746,10.779,172.282,13.113z"/>
			<path fill="#3F51B5" stroke="#FFFFFF" stroke-width="5" stroke-miterlimit="10" d="M250.026,13.113
				c-2.465-2.334-5.457-3.502-8.978-3.502h-28.743v9.053h28.743c2.414,0,3.621,1.078,3.621,3.232v2.577H214.48v8.915h30.189v2.715
				c0,2.154-1.207,3.232-3.621,3.232h-28.743v9.053h28.743c3.521,0,6.513-1.167,8.978-3.501c2.464-2.334,3.697-5.257,3.697-8.772
				v-14.23C253.724,18.371,252.49,15.447,250.026,13.113z"/>
		</g>
	</g>
	<g>
		<path fill="#3F51B5" d="M60.408,36.115c0,3.515-1.233,6.438-3.697,8.771c-2.465,2.334-5.457,3.502-8.978,3.502H24.95
			c-3.521,0-6.514-1.168-8.978-3.502c-2.465-2.334-3.696-5.257-3.696-8.771v-14.23c0-3.514,1.231-6.438,3.696-8.772
			c2.464-2.334,5.456-3.501,8.978-3.501h22.783c3.521,0,6.513,1.167,8.978,3.501c2.464,2.334,3.697,5.258,3.697,8.772V36.115z
			 M51.354,36.104V21.896c0-2.155-1.207-3.232-3.621-3.232H24.95c-2.414,0-3.621,1.078-3.621,3.232v14.207
			c0,2.154,1.207,3.232,3.621,3.232h22.783C50.147,39.336,51.354,38.258,51.354,36.104z"/>
		<path fill="#3F51B5" d="M109.746,48.389H97.374L77.985,26.661h23.312c1.659,0,2.489-1.332,2.489-3.999
			c0-2.665-0.83-3.999-2.489-3.999H73.232v29.725H64.18V9.611h37.646c3.47,0,6.211,1.358,8.223,4.074
			c1.86,2.465,2.792,5.458,2.792,8.978c0,3.521-0.932,6.514-2.792,8.978c-2.012,2.715-4.753,4.074-8.223,4.074h-3.471
			L109.746,48.389z"/>
		<path fill="#3F51B5" d="M160.442,28.736c3.169,1.959,4.753,4.946,4.753,8.961c0,2.911-0.932,5.37-2.791,7.377
			c-2.013,2.209-4.729,3.314-8.148,3.314h-37.645V9.611h36.966c3.42,0,6.136,1.104,8.147,3.313c1.812,2.008,2.717,4.467,2.717,7.378
			C164.441,23.917,163.107,26.728,160.442,28.736z M153.577,24.473c1.308,0,1.962-0.968,1.962-2.904
			c0-1.936-0.654-2.905-1.962-2.905h-27.913v5.809H153.577z M154.186,39.336c1.304,0,1.957-0.969,1.957-2.905
			c0-1.936-0.653-2.904-1.957-2.904h-28.521v5.81H154.186z"/>
		<g>
			<path fill="#3F51B5" d="M172.282,13.113c-2.465,2.334-3.696,5.258-3.696,8.771v14.23c0,3.516,1.231,6.438,3.696,8.772
				c2.464,2.334,5.457,3.501,8.978,3.501h28.571v-9.053H181.26c-2.414,0-3.621-1.078-3.621-3.232v-2.715h30.308v-8.915h-30.308
				v-2.577c0-2.154,1.207-3.232,3.621-3.232h28.571V9.611H181.26C177.739,9.611,174.746,10.779,172.282,13.113z"/>
			<path fill="#3F51B5" d="M250.026,13.113c-2.465-2.334-5.457-3.502-8.978-3.502h-28.743v9.053h28.743
				c2.414,0,3.621,1.078,3.621,3.232v2.577H214.48v8.915h30.189v2.715c0,2.154-1.207,3.232-3.621,3.232h-28.743v9.053h28.743
				c3.521,0,6.513-1.167,8.978-3.501c2.464-2.334,3.697-5.257,3.697-8.772v-14.23C253.724,18.371,252.49,15.447,250.026,13.113z"/>
		</g>
	</g>
</g>
</svg>
